<svg width="35" height="35" viewBox="0 0 35 35" fill="none" xmlns="http://www.w3.org/2000/svg">
<path d="M22.4999 22.6666C25.3534 22.6666 27.6666 20.3534 27.6666 17.4999C27.6666 14.6464 25.3534 12.3333 22.4999 12.3333C19.6464 12.3333 17.3333 14.6464 17.3333 17.4999C17.3333 20.3534 19.6464 22.6666 22.4999 22.6666Z" fill="#19BCFE"/>
<path fill-rule="evenodd" clip-rule="evenodd" d="M12.1667 33.0001C15.0201 33.0001 17.3333 30.6869 17.3333 27.8334C17.3333 27.0545 17.3333 25.3322 17.3333 22.6667C15.0123 22.6667 13.29 22.6667 12.1667 22.6667C9.3132 22.6667 7 24.9799 7 27.8334C7 30.6869 9.3132 33.0001 12.1667 33.0001Z" fill="#09CF83"/>
<path fill-rule="evenodd" clip-rule="evenodd" d="M12.1667 22.6666C13.1178 22.6666 14.84 22.6666 17.3333 22.6666V12.3333C14.84 12.3333 13.1178 12.3333 12.1667 12.3333C9.3132 12.3333 7 14.6464 7 17.4999C7 20.3534 9.3132 22.6666 12.1667 22.6666Z" fill="#A259FF"/>
<path fill-rule="evenodd" clip-rule="evenodd" d="M12.1667 12.3333C13.1178 12.3333 14.84 12.3333 17.3333 12.3333V2C14.84 2 13.1178 2 12.1667 2C9.3132 2 7 4.3132 7 7.16667C7 10.0201 9.3132 12.3333 12.1667 12.3333Z" fill="#F24E1E"/>
<path fill-rule="evenodd" clip-rule="evenodd" d="M22.4999 12.3333H17.3333V2H22.4999C25.3534 2 27.6666 4.3132 27.6666 7.16667C27.6666 10.0201 25.3534 12.3333 22.4999 12.3333Z" fill="#FF7262"/>
</svg>
