<svg width="27" height="40" viewBox="0 0 27 40" fill="none" xmlns="http://www.w3.org/2000/svg">
<path d="M20.1427 26.4966C23.7326 26.4966 26.6427 23.5864 26.6427 19.9966C26.6427 16.4067 23.7326 13.4966 20.1427 13.4966C16.5528 13.4966 13.6427 16.4067 13.6427 19.9966C13.6427 23.5864 16.5528 26.4966 20.1427 26.4966Z" fill="#19BCFE"/>
<path fill-rule="evenodd" clip-rule="evenodd" d="M7.1427 39.4966C10.7326 39.4966 13.6427 36.5864 13.6427 32.9966C13.6427 32.0166 13.6427 29.85 13.6427 26.4966C10.7226 26.4966 8.55597 26.4966 7.1427 26.4966C3.55285 26.4966 0.6427 29.4067 0.6427 32.9966C0.6427 36.5864 3.55285 39.4966 7.1427 39.4966Z" fill="#09CF83"/>
<path fill-rule="evenodd" clip-rule="evenodd" d="M7.1427 26.4966C8.33932 26.4966 10.506 26.4966 13.6427 26.4966V13.4966C10.506 13.4966 8.33932 13.4966 7.1427 13.4966C3.55285 13.4966 0.6427 16.4067 0.6427 19.9966C0.6427 23.5864 3.55285 26.4966 7.1427 26.4966Z" fill="#A259FF"/>
<path fill-rule="evenodd" clip-rule="evenodd" d="M7.1427 13.4966C8.33932 13.4966 10.506 13.4966 13.6427 13.4966V0.496582C10.506 0.496582 8.33932 0.496582 7.1427 0.496582C3.55285 0.496582 0.6427 3.40673 0.6427 6.99658C0.6427 10.5864 3.55285 13.4966 7.1427 13.4966Z" fill="#F24E1E"/>
<path fill-rule="evenodd" clip-rule="evenodd" d="M20.1427 13.4966H13.6427V0.496582H20.1427C23.7326 0.496582 26.6427 3.40673 26.6427 6.99658C26.6427 10.5864 23.7326 13.4966 20.1427 13.4966Z" fill="#FF7262"/>
</svg>
