<svg width="35" height="35" viewBox="0 0 35 35" fill="none" xmlns="http://www.w3.org/2000/svg">
<path d="M28.1475 12.5216C27.805 12.4037 27.4501 12.2921 27.0847 12.1866C27.1447 11.9415 27.1998 11.6995 27.2489 11.4617C28.0535 7.5561 27.5274 4.40975 25.731 3.37384C24.0085 2.38054 21.1915 3.41621 18.3465 5.89215C18.0729 6.13024 17.7986 6.38231 17.5244 6.64649C17.3416 6.4717 17.1592 6.30279 16.9772 6.14123C13.9956 3.49379 11.0069 2.37813 9.21231 3.41704C7.49147 4.41322 6.98186 7.37109 7.7061 11.0724C7.77604 11.4299 7.85779 11.795 7.95024 12.1662C7.52726 12.2863 7.11891 12.4143 6.7282 12.5505C3.23251 13.7692 1 15.6793 1 17.6606C1 19.7068 3.3966 21.7593 7.03763 23.0038C7.32497 23.102 7.62312 23.1948 7.93038 23.283C7.83064 23.6845 7.7439 24.0779 7.67108 24.4616C6.98051 28.0987 7.5198 30.9867 9.23605 31.9766C11.0088 32.9989 13.9839 31.9481 16.881 29.4157C17.11 29.2155 17.3398 29.0032 17.57 28.7807C17.8683 29.0681 18.1663 29.34 18.4626 29.5951C21.2687 32.0098 24.0402 32.9849 25.7549 31.9923C27.5259 30.967 28.1014 27.8647 27.3542 24.0901C27.2971 23.8018 27.2307 23.5073 27.1561 23.2076C27.3651 23.1458 27.5702 23.082 27.7702 23.0157C31.5554 21.7616 34.0182 19.7342 34.0182 17.6606C34.0182 15.6721 31.7136 13.7492 28.1475 12.5216ZM27.3266 21.6769C27.146 21.7366 26.9608 21.7944 26.772 21.8504C26.3541 20.5275 25.7901 19.1208 25.1 17.6674C25.7586 16.2487 26.3008 14.86 26.7069 13.5457C27.0447 13.6434 27.3725 13.7465 27.6884 13.8553C30.7439 14.9071 32.6076 16.4623 32.6076 17.6606C32.6076 18.937 30.5948 20.5939 27.3266 21.6769ZM25.9705 24.364C26.3009 26.0331 26.3481 27.5421 26.1292 28.7218C25.9326 29.7818 25.5371 30.4885 25.0481 30.7716C24.0075 31.3739 21.7823 30.591 19.3825 28.5258C19.1074 28.2891 18.8303 28.0363 18.5523 27.7688C19.4826 26.7513 20.4125 25.5684 21.32 24.2547C22.9161 24.113 24.4242 23.8815 25.7917 23.5653C25.8591 23.837 25.9189 24.1035 25.9705 24.364ZM12.2566 30.6675C11.24 31.0265 10.4303 31.0368 9.94085 30.7546C8.89935 30.1539 8.46638 27.8351 9.05698 24.7247C9.12462 24.3684 9.20514 24.0025 9.29794 23.6285C10.6505 23.9276 12.1475 24.1428 13.7475 24.2725C14.6611 25.558 15.6178 26.7396 16.5819 27.7743C16.3713 27.9776 16.1614 28.1712 15.9528 28.3536C14.6717 29.4734 13.388 30.2679 12.2566 30.6675ZM7.49382 21.669C5.88382 21.1188 4.55423 20.4036 3.64285 19.6231C2.82393 18.9218 2.41047 18.2255 2.41047 17.6606C2.41047 16.4583 4.20295 14.9247 7.1925 13.8824C7.55524 13.7559 7.93496 13.6368 8.32903 13.5248C8.74219 14.8688 9.28419 16.274 9.93826 17.6949C9.27573 19.1369 8.72603 20.5645 8.30881 21.9242C8.02788 21.8435 7.75571 21.7585 7.49382 21.669ZM9.09036 10.8015C8.46984 7.63033 8.88195 5.23808 9.91898 4.63779C11.0236 3.99829 13.4662 4.91008 16.0407 7.19601C16.2052 7.34212 16.3704 7.49504 16.5361 7.65325C15.5768 8.68335 14.6288 9.85608 13.7233 11.134C12.1705 11.2779 10.684 11.5092 9.31734 11.8188C9.23141 11.4731 9.1553 11.1335 9.09036 10.8015ZM23.3329 14.3184C23.0062 13.7541 22.6708 13.2031 22.3288 12.6671C23.3823 12.8003 24.3917 12.9771 25.3395 13.1934C25.055 14.1055 24.7003 15.059 24.2828 16.0366C23.9833 15.468 23.6665 14.8947 23.3329 14.3184ZM17.5248 8.66131C18.1754 9.36616 18.827 10.1531 19.4678 11.007C18.822 10.9764 18.1683 10.9606 17.5091 10.9606C16.8561 10.9606 16.2072 10.9761 15.5654 11.0061C16.2069 10.1602 16.8641 9.37427 17.5248 8.66131ZM11.6796 14.3281C11.3532 14.8941 11.0423 15.4643 10.7475 16.0355C10.3367 15.0614 9.98534 14.1035 9.69829 13.1785C10.6403 12.9677 11.6449 12.7953 12.6917 12.6647C12.345 13.2055 12.0068 13.7606 11.6796 14.328V14.3281ZM12.7219 22.7571C11.6404 22.6364 10.6207 22.4729 9.67884 22.2679C9.97047 21.3265 10.3296 20.3481 10.7491 19.353C11.0446 19.9238 11.3568 20.4943 11.6851 21.0614H11.6852C12.0197 21.6392 12.3662 22.2052 12.7219 22.7571ZM17.5639 26.7593C16.8953 26.038 16.2285 25.2401 15.5772 24.3818C16.2095 24.4066 16.854 24.4193 17.5091 24.4193C18.1821 24.4193 18.8474 24.4042 19.5022 24.375C18.8592 25.2487 18.21 26.0478 17.5639 26.7593ZM24.2962 19.3022C24.7375 20.3081 25.1096 21.2814 25.405 22.2068C24.4476 22.4252 23.414 22.6011 22.325 22.7318C22.6677 22.1886 23.0061 21.6282 23.3385 21.0517C23.6749 20.4685 23.9943 19.8843 24.2962 19.3022ZM22.1167 20.347C21.6006 21.242 21.0707 22.0963 20.5328 22.9027C19.553 22.9727 18.5408 23.0088 17.5091 23.0088C16.4816 23.0088 15.4821 22.9769 14.5196 22.9144C13.96 22.0974 13.4186 21.2406 12.9058 20.3547H12.9059C12.3944 19.4713 11.9236 18.5804 11.4971 17.6944C11.9235 16.8064 12.393 15.9145 12.9016 15.0326L12.9015 15.0328C13.4114 14.1486 13.948 13.2959 14.5025 12.4841C15.4844 12.4098 16.4914 12.3711 17.509 12.3711H17.5091C18.5313 12.3711 19.5395 12.4101 20.5212 12.485C21.0672 13.2909 21.6002 14.1408 22.1121 15.0252C22.6298 15.9195 23.1054 16.8054 23.5355 17.6744C23.1067 18.5583 22.6322 19.4532 22.1167 20.347ZM25.0265 4.59582C26.1321 5.23344 26.5621 7.80494 25.8674 11.177C25.8231 11.3921 25.7732 11.6113 25.719 11.8334C24.3492 11.5173 22.8617 11.2821 21.3043 11.136C20.397 9.84403 19.4568 8.66948 18.5131 7.65261C18.7669 7.40853 19.0202 7.17579 19.2725 6.95616C21.7101 4.83479 23.9884 3.99723 25.0265 4.59582ZM17.5091 14.7122C19.1374 14.7122 20.4575 16.0322 20.4575 17.6606C20.4575 19.2889 19.1374 20.609 17.5091 20.609C15.8807 20.609 14.5607 19.2889 14.5607 17.6606C14.5607 16.0322 15.8807 14.7122 17.5091 14.7122Z" fill="#18A8D6"/>
</svg>
