<svg width="35" height="35" viewBox="0 0 35 35" fill="none" xmlns="http://www.w3.org/2000/svg">
<path d="M11.2046 20.1027C12.8801 20.1027 14.2384 18.7445 14.2384 17.069C14.2384 15.3934 12.8801 14.0352 11.2046 14.0352C9.52906 14.0352 8.17079 15.3934 8.17079 17.069C8.17079 18.7445 9.52906 20.1027 11.2046 20.1027ZM4.03379 26.1703C5.70931 26.1703 7.06759 24.8121 7.06759 23.1365C7.06759 21.461 5.70931 20.1027 4.03379 20.1027C2.35828 20.1027 1 21.461 1 23.1365C1 24.8121 2.35828 26.1703 4.03379 26.1703ZM31.4299 26.1703C33.1054 26.1703 34.4637 24.8121 34.4637 23.1365C34.4637 21.461 33.1054 20.1027 31.4299 20.1027C29.7544 20.1027 28.3961 21.461 28.3961 23.1365C28.3961 24.8121 29.7544 26.1703 31.4299 26.1703Z" fill="#3A3A3A"/>
<path d="M21.4656 17.1969C21.3686 16.1833 21.3192 15.3397 20.5427 14.7467C19.5594 13.9958 18.4455 14.4831 17.0734 13.9878C15.7251 13.6617 14.7251 12.4646 14.7251 11.0378C14.7251 9.36007 16.1078 8 17.8135 8C19.0768 8 20.1629 8.74607 20.6413 9.81469C21.3735 11.2055 20.8976 12.6209 21.8176 13.3338C22.9069 14.178 24.3755 13.5598 26.0141 14.3596C26.5407 14.6016 26.9863 14.9853 27.3004 15.4609C27.6144 15.9366 27.7968 16.504 27.7968 17.1134C27.7968 18.5402 26.7968 19.7373 25.4486 20.0634C24.0765 20.5587 22.9626 20.0714 21.9792 20.8223C20.8734 21.6667 21.4654 23.0794 20.5642 24.5716C20.0526 25.5542 19.0129 26.2268 17.8135 26.2268C16.1078 26.2268 14.7251 24.8667 14.7251 23.189C14.7251 21.9703 15.4547 20.9191 16.5078 20.4352C18.1465 19.6354 19.615 20.2536 20.7043 19.4094C21.3327 18.9224 21.4656 18.1712 21.4656 17.1969Z" fill="#D0021B"/>
</svg>
