<svg width="38" height="34" viewBox="0 0 38 34" fill="none" xmlns="http://www.w3.org/2000/svg">
<path d="M30.844 11.1261C30.4549 10.9922 30.0516 10.8655 29.6364 10.7456C29.7046 10.4671 29.7673 10.1922 29.823 9.92193C30.7371 5.48458 30.1394 1.90981 28.0985 0.732847C26.1414 -0.395706 22.9409 0.780992 19.7085 3.59406C19.3976 3.86456 19.0859 4.15096 18.7743 4.45111C18.5667 4.25252 18.3595 4.06061 18.1527 3.87705C14.7651 0.869134 11.3695 -0.398444 9.33051 0.781927C7.37536 1.91375 6.79636 5.27437 7.61922 9.47969C7.69868 9.88588 7.79157 10.3007 7.8966 10.7224C7.41603 10.8588 6.95208 11.0043 6.50816 11.159C2.53649 12.5437 0 14.7139 0 16.9649C0 19.2898 2.72292 21.6217 6.85973 23.0356C7.18619 23.1472 7.52494 23.2527 7.87403 23.3529C7.76072 23.809 7.66216 24.256 7.57942 24.692C6.79483 28.8243 7.40755 32.1055 9.35749 33.2302C11.3716 34.3917 14.7519 33.1978 18.0434 30.3206C18.3035 30.0932 18.5646 29.852 18.8262 29.5992C19.1652 29.9257 19.5037 30.2346 19.8403 30.5244C23.0285 33.268 26.1774 34.3758 28.1256 33.248C30.1377 32.0832 30.7916 28.5584 29.9426 24.2699C29.8778 23.9423 29.8023 23.6077 29.7176 23.2672C29.955 23.197 30.188 23.1246 30.4153 23.0492C34.7159 21.6243 37.514 19.3208 37.514 16.9649C37.514 14.7057 34.8957 12.5209 30.844 11.1261ZM29.9112 21.5281C29.7061 21.596 29.4956 21.6616 29.2812 21.7252C28.8064 20.2222 28.1656 18.624 27.3815 16.9727C28.1298 15.3608 28.7458 13.783 29.2072 12.2897C29.591 12.4007 29.9635 12.5179 30.3224 12.6415C33.7938 13.8365 35.9114 15.6034 35.9114 16.9649C35.9114 18.4151 33.6245 20.2977 29.9112 21.5281ZM28.3705 24.5811C28.7459 26.4774 28.7995 28.1919 28.5508 29.5322C28.3274 30.7366 27.8781 31.5395 27.3225 31.8611C26.1403 32.5454 23.6121 31.6559 20.8855 29.3096C20.5729 29.0406 20.2581 28.7534 19.9422 28.4495C20.9993 27.2934 22.0557 25.9494 23.0868 24.4568C24.9003 24.2959 26.6137 24.0328 28.1674 23.6736C28.244 23.9823 28.3119 24.2851 28.3705 24.5811ZM12.7894 31.7429C11.6343 32.1508 10.7143 32.1625 10.1582 31.8418C8.97494 31.1593 8.48301 28.5248 9.15403 24.9908C9.23089 24.5861 9.32237 24.1704 9.42781 23.7454C10.9646 24.0852 12.6654 24.3298 14.4832 24.4771C15.5212 25.9377 16.6082 27.2802 17.7036 28.4557C17.4642 28.6867 17.2258 28.9067 16.9888 29.114C15.5333 30.3862 14.0748 31.2889 12.7894 31.7429ZM7.37803 21.5192C5.54882 20.894 4.03818 20.0814 3.00271 19.1947C2.07228 18.3979 1.60252 17.6068 1.60252 16.9649C1.60252 15.5989 3.63907 13.8565 7.03568 12.6723C7.44781 12.5286 7.87924 12.3932 8.32696 12.266C8.79639 13.793 9.41218 15.3895 10.1553 17.0039C9.40257 18.6423 8.77802 20.2642 8.30399 21.8091C7.98481 21.7174 7.67558 21.6208 7.37803 21.5192ZM9.19196 9.17192C8.48695 5.56891 8.95518 2.85093 10.1334 2.1689C11.3884 1.44232 14.1636 2.47826 17.0886 5.07545C17.2756 5.24145 17.4633 5.4152 17.6515 5.59496C16.5616 6.76531 15.4846 8.09773 14.4558 9.54967C12.6915 9.7132 11.0026 9.97589 9.44984 10.3277C9.35222 9.93495 9.26574 9.54913 9.19196 9.17192ZM25.3738 13.1676C25.0026 12.5265 24.6215 11.9005 24.233 11.2915C25.4299 11.4429 26.5767 11.6437 27.6537 11.8895C27.3303 12.9257 26.9274 14.0091 26.453 15.1198C26.1127 14.4737 25.7528 13.8224 25.3738 13.1676ZM18.7749 6.74027C19.5141 7.54109 20.2543 8.4352 20.9824 9.4053C20.2487 9.37064 19.5059 9.35262 18.757 9.35262C18.0151 9.35262 17.2778 9.37024 16.5486 9.4043C17.2775 8.44322 18.0241 7.55031 18.7749 6.74027ZM12.1337 13.1787C11.7629 13.8217 11.4097 14.4695 11.0747 15.1186C10.608 14.0118 10.2088 12.9234 9.88267 11.8725C10.953 11.633 12.0944 11.4372 13.2837 11.2887C12.8897 11.9033 12.5055 12.5339 12.1337 13.1786V13.1787ZM13.3179 22.7554C12.0892 22.6183 10.9306 22.4325 9.86057 22.1996C10.1919 21.1299 10.6 20.0183 11.0765 18.8877C11.4123 19.5363 11.767 20.1844 12.14 20.8288H12.1401C12.5201 21.4852 12.9138 22.1283 13.3179 22.7554ZM18.8192 27.3025C18.0597 26.483 17.302 25.5764 16.5621 24.6013C17.2804 24.6295 18.0127 24.6439 18.757 24.6439C19.5216 24.6439 20.2775 24.6267 21.0215 24.5936C20.291 25.5863 19.5534 26.4942 18.8192 27.3025ZM26.4683 18.8301C26.9697 19.9729 27.3924 21.0787 27.728 22.1302C26.6403 22.3783 25.4659 22.5781 24.2286 22.7266C24.618 22.1095 25.0025 21.4728 25.3802 20.8178C25.7623 20.1551 26.1252 19.4914 26.4683 18.8301ZM23.992 20.0171C23.4056 21.0339 22.8036 22.0046 22.1924 22.9208C21.0792 23.0004 19.9291 23.0414 18.757 23.0414C17.5896 23.0414 16.454 23.0051 15.3605 22.9341C14.7247 22.0059 14.1096 21.0324 13.5269 20.0259H13.527C12.9459 19.0221 12.411 18.0099 11.9264 17.0034C12.4109 15.9945 12.9443 14.9811 13.5221 13.9791L13.522 13.9793C14.1013 12.9747 14.7111 12.006 15.341 11.0835C16.4567 10.9992 17.6007 10.9552 18.7569 10.9552H18.757C19.9184 10.9552 21.0639 10.9995 22.1792 11.0846C22.7996 12.0003 23.4051 12.9659 23.9868 13.9707C24.575 14.9867 25.1153 15.9933 25.604 16.9806C25.1168 17.9848 24.5776 19.0016 23.992 20.0171ZM27.298 2.12122C28.5542 2.84565 29.0427 5.7673 28.2534 9.59848C28.2031 9.84294 28.1464 10.0919 28.0848 10.3443C26.5285 9.98517 24.8384 9.71794 23.0689 9.55194C22.0381 8.08404 20.97 6.74955 19.8978 5.59422C20.186 5.31691 20.4739 5.05248 20.7605 4.80294C23.5301 2.39272 26.1186 1.44112 27.298 2.12122ZM18.757 13.615C20.607 13.615 22.1069 15.1148 22.1069 16.9649C22.1069 18.8149 20.607 20.3148 18.757 20.3148C16.9069 20.3148 15.4071 18.8149 15.4071 16.9649C15.4071 15.1148 16.9069 13.615 18.757 13.615Z" fill="#00D8FF"/>
</svg>
