<svg width="55" height="30" viewBox="0 0 55 30" fill="none" xmlns="http://www.w3.org/2000/svg">
<path d="M16.8499 19.79C19.5366 19.79 21.7146 17.612 21.7146 14.9253C21.7146 12.2386 19.5366 10.0605 16.8499 10.0605C14.1632 10.0605 11.9852 12.2386 11.9852 14.9253C11.9852 17.612 14.1632 19.79 16.8499 19.79ZM5.35153 29.5194C8.03823 29.5194 10.2162 27.3414 10.2162 24.6547C10.2162 21.968 8.03823 19.79 5.35153 19.79C2.66482 19.79 0.486816 21.968 0.486816 24.6547C0.486816 27.3414 2.66482 29.5194 5.35153 29.5194ZM49.2813 29.5194C51.968 29.5194 54.146 27.3414 54.146 24.6547C54.146 21.968 51.968 19.79 49.2813 19.79C46.5946 19.79 44.4166 21.968 44.4166 24.6547C44.4166 27.3414 46.5946 29.5194 49.2813 29.5194Z" fill="#3A3A3A"/>
<path d="M33.3039 15.1303C33.1484 13.505 33.0692 12.1522 31.8241 11.2015C30.2473 9.99743 28.4611 10.7787 26.2609 9.98456C24.099 9.46156 22.4955 7.54207 22.4955 5.25419C22.4955 2.56394 24.7127 0.383057 27.4477 0.383057C29.4734 0.383057 31.215 1.57938 31.9822 3.29293C33.1563 5.52305 32.3932 7.79265 33.8684 8.93586C35.6151 10.2895 37.9699 9.29822 40.5975 10.5808C41.4418 10.9687 42.1565 11.5841 42.66 12.3467C43.1636 13.1094 43.4561 14.0193 43.4561 14.9965C43.4561 17.2843 41.8526 19.2038 39.6907 19.7268C37.4905 20.521 35.7043 19.7397 34.1275 20.9438C32.3543 22.2978 33.3036 24.563 31.8585 26.9558C31.0382 28.5314 29.371 29.6099 27.4477 29.6099C24.7127 29.6099 22.4955 27.429 22.4955 24.7387C22.4955 22.7845 23.6655 21.099 25.3541 20.323C27.9817 19.0405 30.3365 20.0318 32.0832 18.6781C33.0909 17.8972 33.3039 16.6926 33.3039 15.1303Z" fill="#D0021B"/>
</svg>
