<svg width="41" height="40" viewBox="0 0 41 40" fill="none" xmlns="http://www.w3.org/2000/svg">
<path d="M23.066 39.4217C23.126 39.286 23.2774 39.1917 23.3874 39.0775C25.0656 37.3178 26.7581 35.5739 28.4135 33.7928C28.9315 33.3144 29.3318 32.7226 29.583 32.0638C29.8343 31.4049 29.9297 30.6969 29.8618 29.995C29.8098 29.6945 29.7416 29.3969 29.6575 29.1038C29.2062 29.5322 28.7863 29.9222 28.3635 30.3149C27.7065 30.9263 27.0523 31.5404 26.3896 32.1446C25.9988 32.543 25.4964 32.8135 24.9486 32.9204C24.4008 33.0272 23.8335 32.9654 23.3217 32.743C22.8035 32.5527 22.3526 32.2143 22.0251 31.77C21.6975 31.3256 21.5077 30.7948 21.4792 30.2435C21.4638 30.1726 21.4433 30.1029 21.4178 30.035C20.9136 30.4635 20.4308 30.8577 19.9523 31.2633L10.0072 39.6902C9.93865 39.7488 9.86438 39.8216 9.80011 39.8787H23.0589L23.0389 39.8659C22.9675 39.8159 23.0046 39.5531 23.066 39.4217Z" fill="#FFCEBF"/>
<path d="M9.19302 39.4217C9.31096 39.2681 9.4533 39.1349 9.61436 39.0275L23.3773 27.3512C24.3162 26.5543 25.2507 25.753 26.181 24.9474C26.296 24.8673 26.386 24.7564 26.441 24.6275C26.6635 23.6578 26.695 22.6541 26.5338 21.6724C26.391 21.7724 26.3139 21.8152 26.2482 21.8852C25.1212 22.8936 24 23.9105 22.8674 24.9132C22.4922 25.2908 22.0069 25.5397 21.4813 25.6241C20.9557 25.7086 20.4169 25.6242 19.9423 25.3831C19.4581 25.1545 19.0529 24.787 18.7782 24.3274C18.5035 23.8678 18.3717 23.3369 18.3997 22.8022C18.3997 22.6808 18.3997 22.5608 18.3997 22.3394C18.1926 22.4908 18.0412 22.5922 17.8998 22.7065C12.3914 27.117 6.88396 31.5242 1.37745 35.9281C1.12893 36.1266 0.831849 36.5694 0.5062 36.1395C0.180552 35.7096 0.676166 35.5324 0.926116 35.3325C6.79636 30.622 12.6695 25.9158 18.5454 21.2139C19.5024 20.4469 19.5652 20.1256 18.9425 18.9072L18.5711 19.2557C17.5528 20.2027 16.523 21.1368 15.5203 22.0994C15.109 22.4962 14.5939 22.7685 14.0345 22.8849C13.475 23.0013 12.894 22.9572 12.3586 22.7575C11.8232 22.5578 11.3552 22.2108 11.0086 21.7564C10.662 21.3021 10.451 20.759 10.3999 20.1898C10.21 20.3327 10.0457 20.4369 9.89002 20.5583L1.17749 27.3112C1.02723 27.4586 0.855859 27.5828 0.669025 27.6797C0.528015 27.7224 0.376594 27.7148 0.24054 27.6583V39.8859H9.17588C9.14266 39.8124 9.12692 39.7323 9.12989 39.6517C9.13287 39.5712 9.15447 39.4924 9.19302 39.4217V39.4217Z" fill="#FFCEBF"/>
<path d="M33.3311 0.605197C33.0883 1.40075 32.8526 2.19773 32.6398 3.00186C32.4432 3.57011 32.4661 4.19131 32.7039 4.74358C32.9417 5.29584 33.3773 5.73931 33.9253 5.98697C35.6012 6.86793 37.4898 7.26365 39.3784 7.1296V0.740884C39.3575 0.600813 39.3652 0.457935 39.4013 0.320968C39.4413 0.243492 39.4918 0.171884 39.5513 0.108154H33.3254C33.4211 0.21956 33.3882 0.415235 33.3311 0.605197Z" fill="#FF6196"/>
<path d="M20.8264 14.3294C20.7968 15.0425 20.5473 15.729 20.1123 16.2947C18.5569 18.3026 16.7707 20.1204 14.7905 21.7108C14.4711 22.0064 14.0664 22.1932 13.6343 22.2446C13.2022 22.2959 12.7649 22.209 12.3852 21.9964C12.0073 21.835 11.6887 21.5605 11.4731 21.2106C11.2575 20.8607 11.1555 20.4527 11.1812 20.0426C11.2269 19.5388 11.4361 19.0638 11.7768 18.69C13.9911 16.5786 16.3902 14.6699 18.9453 12.9868C19.1127 12.8556 19.3171 12.7803 19.5295 12.7716C19.742 12.7629 19.9519 12.8212 20.1294 12.9383C20.3627 13.0832 20.5514 13.2898 20.6744 13.5354C20.7974 13.781 20.85 14.0558 20.8264 14.3294Z" fill="#FF87AF"/>
<path d="M19.1154 22.9863C19.0822 22.6706 19.1227 22.3515 19.2338 22.0541C19.3448 21.7567 19.5233 21.4891 19.7552 21.2723C21.9233 19.2726 24.2495 17.4513 26.711 15.8263C26.7852 15.7792 26.8538 15.732 26.9352 15.6835C27.1502 15.5282 27.4107 15.4489 27.6758 15.458C27.9408 15.467 28.1953 15.5639 28.3992 15.7335C28.5965 15.9006 28.7361 16.1257 28.7982 16.3767C28.8602 16.6277 28.8415 16.8919 28.7448 17.1317C28.4334 18.169 27.8587 19.1078 27.0766 19.8569C25.4983 21.428 23.8601 22.9477 22.2204 24.456C21.9721 24.7113 21.646 24.8768 21.2933 24.9265C20.9406 24.9761 20.5814 24.9071 20.2723 24.7302C19.9474 24.5614 19.6708 24.3128 19.4684 24.0077C19.2661 23.7027 19.1446 23.3512 19.1154 22.9863Z" fill="#FF87AF"/>
<path d="M29.4218 23.9303C29.0219 24.3588 28.6105 24.7673 28.2263 25.2057C28.1108 25.3752 28.015 25.5573 27.9407 25.7485C28.1521 25.8113 28.3992 25.977 28.5706 25.9185C29.4432 25.6257 30.2945 25.2743 31.2529 24.9044C31.0443 25.3843 30.8872 25.827 30.6658 26.2327C29.7538 27.7654 28.6117 29.1489 27.2794 30.3347C26.7728 30.8232 26.2467 31.2902 25.7011 31.7358C25.4122 31.9756 25.0648 32.1343 24.6944 32.1958C24.3239 32.2572 23.9439 32.2192 23.593 32.0855C23.2421 31.9518 22.9331 31.7274 22.6974 31.435C22.4618 31.1427 22.308 30.7931 22.2518 30.4218C22.2289 30.2154 22.2472 30.0065 22.3055 29.8072C22.3639 29.6079 22.4612 29.4221 22.5918 29.2606C24.5354 27.15 26.7567 25.3131 29.1947 23.8003C29.2244 23.7888 29.2558 23.7825 29.2876 23.7817L29.4218 23.9303Z" fill="#FF87AF"/>
<path d="M32.6984 18.2414L35.1422 7.38647L36.8561 7.78782L35.972 10.4744C35.1464 12.9739 34.3109 15.4734 33.5053 17.9758C33.3482 18.4385 33.1426 18.5242 32.6984 18.2414Z" fill="#FF6196"/>
<path d="M29.9389 24.6261C30.1974 23.6391 30.4545 22.7265 30.6716 21.8038C30.8832 20.909 31.2856 20.0705 31.8514 19.3457C32.1984 18.8901 32.5884 19.0715 32.9869 19.17C33.3554 19.26 33.4482 19.53 33.4639 19.8842C33.522 20.8637 33.2237 21.8312 32.6241 22.6079C31.9102 23.4929 30.9875 24.1864 29.9389 24.6261V24.6261Z" fill="#FF6196"/>
<path d="M40.124 1.27789C40.1453 0.959791 40.1372 0.640402 40.0997 0.323798C40.0703 0.235362 40.0119 0.159403 39.9341 0.108127C39.8706 0.0565718 39.7964 0.0199587 39.717 0.0010057C39.6713 -0.007564 39.607 0.0395692 39.5456 0.106699C39.4861 0.170428 39.4356 0.242037 39.3956 0.319513C39.3595 0.45648 39.3518 0.599357 39.3727 0.739428V7.12671C37.4841 7.26077 35.5955 6.86505 33.9196 5.98409C33.3716 5.73643 32.936 5.29296 32.6982 4.74069C32.4604 4.18843 32.4375 3.56723 32.6341 2.99897C32.8469 2.19485 33.0826 1.39787 33.3254 0.602313C33.3825 0.412351 33.4154 0.216676 33.3254 0.10527C33.2753 0.0510367 33.2062 0.0182789 33.1326 0.0138603C33.0382 0.014878 32.9468 0.0470101 32.8726 0.10527C32.7658 0.169158 32.6807 0.263719 32.6284 0.376644C32.3427 1.23361 32.0913 2.09915 31.8728 2.97326C31.7903 3.31772 31.7681 3.67386 31.8071 4.02591C31.8624 4.66289 32.0993 5.27063 32.4897 5.77697C32.8801 6.28332 33.4076 6.66701 34.0095 6.88248C34.2795 6.99531 34.438 7.10672 34.3623 7.46236C34.2581 7.9137 34.1566 8.36503 34.0538 8.8178C33.354 11.8858 32.6579 14.9551 31.9657 18.0259C31.9461 18.1629 31.8859 18.2907 31.7928 18.393C31.3366 18.7557 30.9532 19.2016 30.6631 19.707C30.2933 20.3741 30.0375 21.0982 29.9061 21.8495C29.8809 22.0891 29.7943 22.3182 29.6546 22.5146C29.515 22.711 29.3271 22.8681 29.1091 22.9707C28.5135 23.272 27.9665 23.6619 27.3052 24.0676C27.3493 23.2723 27.3407 22.475 27.2795 21.6809C27.2291 21.4366 27.2398 21.1837 27.3106 20.9445C27.3813 20.7054 27.51 20.4874 27.6851 20.3098C28.5562 19.4468 29.1771 18.3638 29.4819 17.1761C29.5729 16.9008 29.5979 16.6079 29.5547 16.3212C29.5116 16.0344 29.4016 15.7618 29.2337 15.5254C29.0657 15.2891 28.8445 15.0955 28.5878 14.9605C28.3312 14.8254 28.0465 14.7526 27.7565 14.748C27.2871 14.7428 26.8262 14.8738 26.4296 15.1251C25.0628 16.0478 23.733 17.0276 22.4133 18.0188C21.632 18.6073 20.8965 19.2586 20.1395 19.8756C20.1068 19.8405 20.0786 19.8017 20.0552 19.7599C20.0407 19.6547 20.0124 19.5519 19.9709 19.4542C19.3382 18.4773 19.7767 17.7674 20.4637 17.0376C21.1794 16.2873 21.5749 15.2879 21.5663 14.251C21.5885 13.7227 21.4231 13.2036 21.0993 12.7856C20.9268 12.5734 20.7142 12.3972 20.4737 12.2671C20.132 12.0801 19.7414 12.0021 19.3541 12.0434C18.9668 12.0848 18.6014 12.2436 18.307 12.4985L17.9085 12.7841C16.9987 13.4354 16.0774 14.0696 15.2019 14.7666C13.9236 15.7835 12.6753 16.8433 11.4512 17.9288C10.8799 18.433 10.4629 19.1214 9.87012 19.5899C6.77931 22.0308 3.65565 24.4275 0.543425 26.8399C0.43641 26.9037 0.338011 26.981 0.250627 27.0698C0.241631 27.0828 0.233974 27.0967 0.227774 27.1113C0.162073 27.2641 0.10637 27.5169 0.183498 27.6097C0.202404 27.6299 0.225254 27.6459 0.250627 27.6569C0.386682 27.7133 0.538103 27.7209 0.679112 27.6783C0.865947 27.5814 1.03731 27.4572 1.18758 27.3098L9.90011 20.5569C10.0558 20.4355 10.22 20.3255 10.41 20.1884C10.4611 20.7575 10.6721 21.3006 11.0187 21.755C11.3653 22.2093 11.8333 22.5563 12.3687 22.756C12.9041 22.9557 13.4851 22.9999 14.0446 22.8834C14.604 22.767 15.1191 22.4947 15.5304 22.098C16.5302 21.1353 17.5629 20.2012 18.5812 19.2543L18.9526 18.9058C19.5753 20.1241 19.5125 20.4455 18.5555 21.2124C12.6748 25.9182 6.79835 30.6248 0.926205 35.3325C0.676255 35.5324 0.182069 35.7138 0.50629 36.1394C0.83051 36.5651 1.12902 36.1266 1.37754 35.928C6.88691 31.528 12.3925 27.1222 17.8942 22.7107C18.037 22.5964 18.187 22.495 18.3941 22.3436C18.3941 22.565 18.3941 22.685 18.3941 22.8064C18.3661 23.3411 18.4978 23.8721 18.7725 24.3317C19.0472 24.7913 19.4525 25.1587 19.9367 25.3873C20.4113 25.6284 20.9501 25.7128 21.4757 25.6284C22.0013 25.544 22.4866 25.295 22.8618 24.9174C23.9944 23.9176 25.1156 22.8978 26.2425 21.8895C26.3139 21.8252 26.3968 21.7766 26.5282 21.6766C26.6894 22.6584 26.6579 23.6621 26.4353 24.6318C26.3804 24.7607 26.2903 24.8715 26.1754 24.9517C25.2442 25.7563 24.3096 26.5576 23.3717 27.3555L9.61445 39.0331C9.45338 39.1406 9.31104 39.2738 9.19311 39.4273C9.15547 39.4974 9.13436 39.5751 9.13139 39.6546C9.12842 39.7341 9.14367 39.8132 9.17597 39.8858V39.8858C9.24051 39.9342 9.31511 39.9674 9.39423 39.9829C9.47335 39.9985 9.55497 39.9961 9.63302 39.9758C9.69461 39.9579 9.75129 39.9262 9.7987 39.883C9.87012 39.8258 9.94153 39.753 10.0058 39.6944L19.9509 31.2676C20.4294 30.8619 20.9122 30.462 21.4164 30.0392C21.4419 30.1072 21.4624 30.1768 21.4778 30.2478C21.5063 30.7991 21.6961 31.3298 22.0237 31.7742C22.3512 32.2185 22.8021 32.5569 23.3203 32.7473C23.8321 32.9696 24.3994 33.0315 24.9472 32.9246C25.495 32.8178 25.9974 32.5473 26.3882 32.1488C27.0509 31.5446 27.7051 30.9305 28.3621 30.3192C28.7906 29.9264 29.2048 29.5322 29.6561 29.108C29.7402 29.4012 29.8084 29.6987 29.8604 29.9992C29.926 30.6988 29.8295 31.404 29.5783 32.0602C29.3272 32.7164 28.9281 33.3059 28.4121 33.7828C26.7567 35.5653 25.0642 37.3092 23.386 39.0674C23.276 39.1817 23.1246 39.2759 23.0646 39.4116C23.0046 39.5473 22.966 39.813 23.0375 39.8701L23.0575 39.883C23.2072 39.9558 23.3756 39.9812 23.5402 39.9558C23.5863 39.9463 23.6274 39.9205 23.6559 39.883C23.6959 39.8415 23.7345 39.7901 23.773 39.7516C25.1328 38.3461 26.4996 36.9478 27.8493 35.5324C28.3942 34.9804 28.9064 34.3972 29.3833 33.7856C30.0053 33.0971 30.4177 32.2453 30.572 31.3303C30.7264 30.4154 30.6162 29.4754 30.2546 28.6209C30.2157 28.4304 30.2537 28.2323 30.3603 28.0696C30.4531 27.9097 30.5559 27.754 30.6616 27.5997C30.9998 27.1606 31.2815 26.6808 31.5 26.1714C31.9224 24.9214 32.5706 23.7595 33.4125 22.7436C33.7996 22.2528 34.0659 21.678 34.1899 21.0655C34.314 20.4529 34.2923 19.8198 34.1267 19.2171C34.0681 18.988 34.0681 18.7478 34.1267 18.5187C34.8494 16.2806 35.5935 14.0496 36.3305 11.8172C36.6609 10.8174 36.9894 9.82045 37.316 8.82637L37.6202 7.90227C38.2687 7.90227 38.88 7.88942 39.4884 7.90227C39.994 7.91655 40.1483 7.67946 40.1426 7.18813C40.1126 5.2171 40.124 3.24749 40.124 1.27789ZM14.7906 21.7109C14.4712 22.0065 14.0665 22.1934 13.6344 22.2447C13.2023 22.296 12.765 22.2091 12.3853 21.9966C12.0074 21.8351 11.6888 21.5606 11.4732 21.2107C11.2576 20.8609 11.1556 20.4528 11.1813 20.0427C11.227 19.5389 11.4362 19.064 11.7769 18.6901C13.9912 16.5787 16.3903 14.67 18.9454 12.987C19.0849 12.8884 19.2435 12.8202 19.411 12.787C19.5234 12.7663 19.6386 12.7663 19.751 12.787C19.8855 12.8132 20.014 12.8646 20.1295 12.9384C20.363 13.0834 20.5518 13.2903 20.6749 13.5361C20.7979 13.782 20.8504 14.0571 20.8265 14.331C20.7969 15.0441 20.5474 15.7305 20.1123 16.2963C18.5569 18.3036 16.7707 20.121 14.7906 21.7109ZM22.2176 24.4661C21.9693 24.7214 21.6432 24.8869 21.2905 24.9366C20.9378 24.9862 20.5786 24.9172 20.2694 24.7403C19.944 24.5711 19.667 24.3219 19.4646 24.016C19.2622 23.7101 19.1411 23.3577 19.1125 22.9921C19.0794 22.6764 19.1199 22.3573 19.2309 22.0599C19.342 21.7625 19.5205 21.4949 19.7524 21.2781C21.9205 19.2784 24.2467 17.4571 26.7081 15.8321C26.7824 15.785 26.851 15.7378 26.9324 15.6893C27.1474 15.5341 27.4079 15.4547 27.6729 15.4638C27.938 15.4728 28.1925 15.5697 28.3964 15.7393C28.5937 15.9064 28.7333 16.1315 28.7953 16.3825C28.8574 16.6335 28.8387 16.8977 28.742 17.1376C28.4306 18.1748 27.8559 19.1136 27.0738 19.8627C25.4984 21.4367 23.8602 22.9521 22.2205 24.4604L22.2176 24.4661ZM30.6602 26.2386C29.7494 27.7689 28.6093 29.1504 27.2795 30.3349C26.7729 30.8234 26.2468 31.2904 25.7012 31.736C25.4123 31.9758 25.0648 32.1345 24.6944 32.196C24.324 32.2574 23.9439 32.2193 23.5931 32.0857C23.2422 31.952 22.9331 31.7275 22.6975 31.4352C22.4618 31.1429 22.3081 30.7933 22.2519 30.422C22.229 30.2156 22.2473 30.0067 22.3056 29.8074C22.364 29.6081 22.4612 29.4223 22.5918 29.2608C24.5355 27.1502 26.7568 25.3133 29.1948 23.8005C29.2244 23.789 29.2558 23.7827 29.2876 23.7819L29.4305 23.9248C29.0305 24.3532 28.6192 24.7617 28.235 25.2002C28.1195 25.3697 28.0236 25.5518 27.9493 25.743C28.1607 25.8058 28.4078 25.9715 28.5792 25.9129C29.2691 25.6815 29.9475 25.413 30.6745 25.1274L31.2615 24.8988C31.0416 25.3845 30.8844 25.8272 30.6631 26.2329L30.6602 26.2386ZM32.6212 22.6179C32.0885 23.2961 31.4207 23.8564 30.6602 24.2633C30.425 24.3947 30.1836 24.5175 29.9361 24.6318C30.1903 23.6591 30.4445 22.7578 30.6602 21.8466L30.6688 21.8095C30.8804 20.9147 31.2828 20.0762 31.8485 19.3514C32.1956 18.8958 32.5855 19.0772 32.984 19.1757C33.3525 19.2657 33.4454 19.5356 33.4611 19.8899C33.5196 20.8685 33.2224 21.8354 32.6241 22.6122L32.6212 22.6179ZM35.9634 10.4775C35.1379 12.977 34.3023 15.4765 33.4968 17.9788C33.3454 18.4487 33.1397 18.5344 32.6955 18.2516L34.8137 8.83494L35.1393 7.38952L36.8532 7.79086C36.7361 8.14365 36.6233 8.49072 36.509 8.83494L35.9634 10.4775Z" fill="black"/>
</svg>
