<svg width="35" height="40" viewBox="0 0 35 40" fill="none" xmlns="http://www.w3.org/2000/svg">
<path d="M17.5 39.2163L34.486 29.608V10.3849L17.5 0.776619L0.513977 10.3849V29.608L17.5 39.2163Z" fill="white"/>
<path d="M31.4542 11.0516L18.0641 3.46879V9.36582L26.4097 13.9617L31.4542 11.0516ZM32.3708 11.8785V27.7235L27.4737 24.8968V14.7052L32.3708 11.8785ZM3.49455 11.0516L16.8847 3.4752V9.37223L8.53907 13.9617L3.49455 11.0516ZM2.57794 11.8785V27.7235L7.47504 24.8968V14.7052L2.57794 11.8785ZM3.14842 28.7491L16.8847 36.5178V30.8131L8.08398 25.9737L8.01347 25.9352L3.14842 28.7491ZM31.7939 28.7491L18.0641 36.5178V30.8131L26.8583 25.9673L26.9288 25.9288L31.7939 28.7491Z" fill="#8ED6FB"/>
<path d="M16.8846 10.7119L8.65442 15.2437V24.211L16.8846 19.4613V10.7119ZM18.064 10.7119L26.2942 15.2372V24.211L18.064 19.4613V10.7119ZM9.20566 25.2494L17.4743 29.7939L25.7366 25.2494L17.4743 20.4805L9.20566 25.2494Z" fill="#1C78C0"/>
</svg>
