<svg width="30" height="29" viewBox="0 0 30 29" fill="none" xmlns="http://www.w3.org/2000/svg">
<path fill-rule="evenodd" clip-rule="evenodd" d="M0 4.69697C0 2.14296 1.98874 0 4.52861 0H25.4714C28.0113 0 30 2.14297 30 4.69697V23.4848C30 26.0389 28.0113 28.1818 25.4714 28.1818H4.52861C1.98875 28.1818 0 26.0389 0 23.4848V4.69697ZM4.52861 3.13131C3.76381 3.13131 3.07357 3.79223 3.07357 4.69697V23.4848C3.07357 24.3896 3.76379 25.0505 4.52861 25.0505H25.4714C26.2362 25.0505 26.9264 24.3896 26.9264 23.4848V4.69697C26.9264 3.79221 26.2362 3.13131 25.4714 3.13131H4.52861ZM7.94442 8.27203C8.55261 7.6689 9.52556 7.68226 10.1176 8.30187L14.6053 12.9988C15.1861 13.6067 15.1861 14.5751 14.6053 15.183L10.1176 19.8799C9.52556 20.4996 8.55261 20.5129 7.94442 19.9098C7.33623 19.3067 7.32312 18.3154 7.91513 17.6958L11.3595 14.0909L7.91513 10.486C7.32312 9.86639 7.33623 8.87517 7.94442 8.27203ZM14.9591 18.7879C14.9591 17.9232 15.6472 17.2222 16.4959 17.2222H20.9837C21.8324 17.2222 22.5204 17.9232 22.5204 18.7879C22.5204 19.6526 21.8324 20.3535 20.9837 20.3535H16.4959C15.6472 20.3535 14.9591 19.6526 14.9591 18.7879Z" fill="#21AE95"/>
</svg>
