<svg width="30" height="30" viewBox="0 0 30 30" fill="none" xmlns="http://www.w3.org/2000/svg">
<path fill-rule="evenodd" clip-rule="evenodd" d="M0.732227 0.732227C1.70855 -0.244075 3.29146 -0.244075 4.26778 0.732227L15 11.4645L25.7323 0.732227C26.7086 -0.244075 28.2916 -0.244075 29.2678 0.732227C30.2441 1.70855 30.2441 3.29146 29.2678 4.26778L18.5355 15L29.2678 25.7323C30.2441 26.7086 30.2441 28.2916 29.2678 29.2678C28.2916 30.2441 26.7086 30.2441 25.7323 29.2678L15 18.5355L4.26778 29.2678C3.29146 30.2441 1.70855 30.2441 0.732227 29.2678C-0.244075 28.2916 -0.244075 26.7086 0.732227 25.7323L11.4645 15L0.732227 4.26778C-0.244075 3.29146 -0.244075 1.70855 0.732227 0.732227V0.732227Z" fill="#3C67BC"/>
</svg>
