<svg width="33" height="39" viewBox="0 0 33 39" fill="none" xmlns="http://www.w3.org/2000/svg">
<path d="M27.5627 0C30.2478 0 32.4246 2.17676 32.4246 4.86193V32.5749C32.4246 33.3804 31.7715 34.0335 30.966 34.0335H3.25303C3.25303 35.1076 4.12375 35.9783 5.1978 35.9783H30.966C31.7715 35.9783 32.4246 36.6313 32.4246 37.4368C32.4246 38.2424 31.7715 38.8954 30.966 38.8954H5.1978C2.51264 38.8954 0.335876 36.7186 0.335876 34.0335V4.86193C0.335876 2.17676 2.51264 0 5.1978 0H27.5627ZM21.2422 18.4753H11.5183C10.7128 18.4753 10.0597 19.1284 10.0597 19.9339V20.9053C10.0597 22.8511 12.7495 24.3096 16.3802 24.3096C20.0107 24.3096 22.7007 22.8511 22.7007 20.9053V19.9339C22.7007 19.1284 22.0477 18.4753 21.2422 18.4753ZM16.3802 9.72385C14.5 9.72385 12.9769 11.2381 12.9769 13.1184C12.9769 14.9987 14.5 16.523 16.3802 16.523C18.2604 16.523 19.7836 14.9987 19.7836 13.1184C19.7836 11.2381 18.2604 9.72385 16.3802 9.72385Z" fill="#4493F0"/>
</svg>
