<svg width="20" height="20" viewBox="0 0 20 20" fill="none" xmlns="http://www.w3.org/2000/svg">
<path fill-rule="evenodd" clip-rule="evenodd" d="M0.488151 0.488151C1.13904 -0.162717 2.1943 -0.162717 2.84519 0.488151L10 7.643L17.1549 0.488151C17.8057 -0.162717 18.861 -0.162717 19.5119 0.488151C20.1627 1.13904 20.1627 2.1943 19.5119 2.84519L12.357 10L19.5119 17.1549C20.1627 17.8057 20.1627 18.861 19.5119 19.5119C18.861 20.1627 17.8057 20.1627 17.1549 19.5119L10 12.357L2.84519 19.5119C2.1943 20.1627 1.13904 20.1627 0.488151 19.5119C-0.162717 18.861 -0.162717 17.8057 0.488151 17.1549L7.643 10L0.488151 2.84519C-0.162717 2.1943 -0.162717 1.13904 0.488151 0.488151V0.488151Z" fill="#F4F4F4"/>
</svg>
