<svg width="90" height="91" viewBox="0 0 90 91" fill="none" xmlns="http://www.w3.org/2000/svg">
<path fill-rule="evenodd" clip-rule="evenodd" d="M13.5 9.5C11.0147 9.5 9 11.5147 9 14V68C9 75.4557 15.0442 81.5 22.5 81.5C26.2224 81.5 29.593 79.9934 32.0352 77.5566C32.0388 77.553 32.0424 77.5494 32.046 77.5458L32.0673 77.5245C34.4978 75.0831 36 71.717 36 68V24.5457C36 24.5446 36 24.5435 36 24.5424V14C36 11.5147 33.9854 9.5 31.5 9.5H13.5ZM45 26.4081V64.5917L70.2297 39.362L70.2299 39.3618C71.9871 37.6047 71.9873 34.7557 70.2298 32.9983L70.2297 32.9982L57.502 20.2704C57.5019 20.2703 57.5019 20.2703 57.5019 20.2703C55.7441 18.5128 52.8951 18.5131 51.1381 20.2702L51.138 20.2704L45 26.4081ZM40.8197 81.5L67.8196 54.5H76.5C78.9854 54.5 81 56.5146 81 59V77C81 79.4854 78.9854 81.5 76.5 81.5H40.8197ZM76.8111 45.5035C84.1234 45.6688 90 51.648 90 59V77C90 84.456 83.956 90.5 76.5 90.5H22.5C10.0736 90.5 0 80.4262 0 68V14C0 6.54415 6.04415 0.5 13.5 0.5H31.5C38.852 0.5 44.8311 6.37677 44.9965 13.6889C50.2838 8.63513 58.6671 8.70792 63.8657 13.9062L63.8659 13.9063L76.5935 26.6342C76.5936 26.6342 76.5936 26.6342 76.5937 26.6343C81.7923 31.8328 81.865 40.2163 76.8111 45.5035ZM18 68C18 65.5147 20.0147 63.5 22.5 63.5H22.545C25.0303 63.5 27.045 65.5147 27.045 68C27.045 70.4853 25.0303 72.5 22.545 72.5H22.5C20.0147 72.5 18 70.4853 18 68Z" fill="#21AE95"/>
</svg>
