<svg width="100" height="87" viewBox="0 0 100 87" fill="none" xmlns="http://www.w3.org/2000/svg">
<path fill-rule="evenodd" clip-rule="evenodd" d="M8.05458 8.05458C18.794 -2.68487 36.2061 -2.68484 46.9456 8.05456L50.0003 11.1092L53.0543 8.05481L53.0546 8.05454C63.7942 -2.68484 81.206 -2.68484 91.9456 8.05454L91.9457 8.05464C102.685 18.7941 102.685 36.2059 91.9457 46.9455L91.9457 46.9456L53.5361 85.3556C52.5984 86.2933 51.3267 86.8201 50.0006 86.8201C48.6745 86.8201 47.4027 86.2934 46.465 85.3557L8.05459 46.9456L8.05454 46.9456C-2.68482 36.206 -2.68488 18.794 8.05458 8.05458ZM39.8745 15.1257C33.0402 8.29145 21.9598 8.29148 15.1257 15.1257C8.29151 21.9598 8.29143 33.0401 15.1256 39.8745C15.1257 39.8745 15.1257 39.8745 15.1257 39.8746L50.0005 74.749L84.8745 39.8746C84.8745 39.8746 84.8745 39.8746 84.8745 39.8745C91.7085 33.0401 91.7084 21.9599 84.8746 15.1257C84.8746 15.1257 84.8745 15.1256 84.8745 15.1256M60.1256 15.1257L53.5363 21.7158C52.5987 22.6536 51.3269 23.1804 50.0007 23.1805C48.6746 23.1805 47.4028 22.6538 46.4651 21.7161L39.8746 15.1257L39.8745 15.1257M60.1256 15.1257C66.9599 8.29149 78.0401 8.29145 84.8745 15.1256Z" fill="#21AE95"/>
</svg>
