<svg width="20" height="20" viewBox="0 0 20 20" fill="none" xmlns="http://www.w3.org/2000/svg">
<path fill-rule="evenodd" clip-rule="evenodd" d="M0 1.66667C0 0.7462 0.6396 0 1.42857 0H18.5714C19.3604 0 20 0.7462 20 1.66667C20 2.58713 19.3604 3.33333 18.5714 3.33333H1.42857C0.6396 3.33333 0 2.58713 0 1.66667ZM0 9.99998C0 9.07951 0.6396 8.33331 1.42857 8.33331H18.5714C19.3604 8.33331 20 9.07951 20 9.99998C20 10.9205 19.3604 11.6666 18.5714 11.6666H1.42857C0.6396 11.6666 0 10.9205 0 9.99998ZM9.99998 16.6667C9.21101 16.6667 8.57141 17.4129 8.57141 18.3334C8.57141 19.2539 9.21101 20 9.99998 20H18.5714C19.3604 20 20 19.2539 20 18.3334C20 17.4129 19.3604 16.6667 18.5714 16.6667H9.99998Z" fill="#F4F4F4"/>
</svg>
