<svg width="37" height="37" viewBox="0 0 37 37" fill="none" xmlns="http://www.w3.org/2000/svg">
<path d="M0 4.11111C0 1.84061 1.84061 0 4.11111 0H10.8518C11.7365 0 12.5221 0.566162 12.8018 1.40553L15.8806 10.642C16.2042 11.6125 15.7649 12.6731 14.85 13.1306L10.21 15.4506C12.4757 20.4758 16.5242 24.5244 21.5494 26.7901L23.8693 22.15C24.3269 21.2351 25.3875 20.7958 26.358 21.1194L35.5944 24.1982C36.4339 24.478 37 25.2634 37 26.1483V32.8889C37 35.1595 35.1595 37 32.8889 37H30.8333C13.8046 37 0 23.1955 0 6.16667V4.11111Z" fill="#4493F0"/>
</svg>
