<svg width="35" height="35" viewBox="0 0 35 35" fill="none" xmlns="http://www.w3.org/2000/svg">
<g clip-path="url(#clip0_640_4487)">
<path fill-rule="evenodd" clip-rule="evenodd" d="M3.35107 17.5C3.35107 9.68578 9.68578 3.35107 17.5 3.35107C25.3143 3.35107 31.649 9.68578 31.649 17.5C31.649 25.3143 25.3143 31.649 17.5 31.649C9.68578 31.649 3.35107 25.3143 3.35107 17.5ZM17.5 0C7.83504 0 0 7.83504 0 17.5C0 27.1651 7.83504 35.0001 17.5 35.0001C27.1651 35.0001 35.0001 27.1651 35.0001 17.5C35.0001 7.83504 27.1651 0 17.5 0ZM23.83 17.5L14.3353 11.1702V23.8298L23.83 17.5Z" fill="#D9D9D9"/>
</g>
<defs>
<clipPath id="clip0_640_4487">
<rect width="35" height="35" fill="white"/>
</clipPath>
</defs>
</svg>
