<svg width="30" height="30" viewBox="0 0 30 30" fill="none" xmlns="http://www.w3.org/2000/svg">
<path fill-rule="evenodd" clip-rule="evenodd" d="M15 0C16.0356 0 16.875 0.839475 16.875 1.875V3.75C16.875 4.78552 16.0356 5.625 15 5.625C13.9645 5.625 13.125 4.78552 13.125 3.75V1.875C13.125 0.839475 13.9645 0 15 0ZM22.5 15C22.5 19.1421 19.1421 22.5 15 22.5C10.8579 22.5 7.5 19.1421 7.5 15C7.5 10.8579 10.8579 7.5 15 7.5C19.1421 7.5 22.5 10.8579 22.5 15ZM21.6292 24.2807L22.9551 25.6065C23.6873 26.3387 24.8745 26.3387 25.6067 25.6065C26.3389 24.8743 26.3389 23.6871 25.6067 22.9549L24.2809 21.6291C23.5487 20.8969 22.3614 20.8969 21.6292 21.6291C20.8971 22.3612 20.8971 23.5485 21.6292 24.2807ZM25.6065 4.39329C26.3387 5.12554 26.3387 6.31271 25.6065 7.04496L24.2807 8.37077C23.5485 9.10301 22.3612 9.10301 21.6291 8.37077C20.8969 7.63854 20.8969 6.45135 21.6291 5.71912L22.9549 4.39329C23.6871 3.66107 24.8743 3.66107 25.6065 4.39329ZM28.125 16.875C29.1606 16.875 30 16.0356 30 15C30 13.9645 29.1606 13.125 28.125 13.125H26.25C25.2144 13.125 24.375 13.9645 24.375 15C24.375 16.0356 25.2144 16.875 26.25 16.875H28.125ZM15 24.375C16.0356 24.375 16.875 25.2144 16.875 26.25V28.125C16.875 29.1606 16.0356 30 15 30C13.9645 30 13.125 29.1606 13.125 28.125V26.25C13.125 25.2144 13.9645 24.375 15 24.375ZM5.71933 8.37081C6.45156 9.10305 7.63875 9.10305 8.37097 8.37081C9.10322 7.63858 9.10322 6.45139 8.37097 5.71916L7.04516 4.39333C6.31292 3.66111 5.12574 3.66111 4.3935 4.39333C3.66128 5.12556 3.66128 6.31275 4.3935 7.04497L5.71933 8.37081ZM8.37081 24.2807L7.04497 25.6065C6.31275 26.3387 5.12556 26.3387 4.39333 25.6065C3.66111 24.8743 3.66111 23.6871 4.39333 22.9549L5.71916 21.6291C6.45139 20.8969 7.63858 20.8969 8.37081 21.6291C9.10305 22.3612 9.10305 23.5485 8.37081 24.2807ZM3.75 16.875C4.78552 16.875 5.625 16.0356 5.625 15C5.625 13.9645 4.78552 13.125 3.75 13.125H1.875C0.839475 13.125 0 13.9645 0 15C0 16.0356 0.839475 16.875 1.875 16.875H3.75Z" fill="#21AE95"/>
</svg>
