<svg width="39" height="39" viewBox="0 0 39 39" fill="none" xmlns="http://www.w3.org/2000/svg">
<path d="M35.9433 12.7492V34.1417C35.9433 36.7672 33.8149 38.8956 31.1894 38.8956H7.42001C4.79451 38.8956 2.66613 36.7672 2.66613 34.1417V12.7492H35.9433ZM22.573 18.0973H14.848C14.0275 18.0973 13.3624 18.7625 13.3624 19.5829C13.3624 20.4034 14.0275 21.0685 14.848 21.0685H22.573C23.3935 21.0685 24.0586 20.4034 24.0586 19.5829C24.0586 18.7625 23.3935 18.0973 22.573 18.0973ZM35.9433 0.864502C37.2561 0.864502 38.3203 1.9287 38.3203 3.24144V7.99533C38.3203 9.30808 37.2561 10.3723 35.9433 10.3723H2.66613C1.35338 10.3723 0.289185 9.30808 0.289185 7.99533V3.24144C0.289185 1.9287 1.35338 0.864502 2.66613 0.864502H35.9433Z" fill="#4493F0"/>
</svg>
