<svg width="35" height="35" viewBox="0 0 35 35" fill="none" xmlns="http://www.w3.org/2000/svg">
<path d="M19.7634 32.5546C19.8099 32.4494 19.9273 32.3764 20.0125 32.2878C21.3133 30.9239 22.6252 29.5722 23.9083 28.1916C24.3098 27.8208 24.6201 27.3621 24.8148 26.8514C25.0096 26.3408 25.0835 25.792 25.0309 25.2479C24.9906 25.015 24.9377 24.7844 24.8726 24.5571C24.5227 24.8893 24.1972 25.1915 23.8696 25.4959C23.3603 25.9698 22.8533 26.4458 22.3396 26.9141C22.0367 27.2229 21.6472 27.4326 21.2226 27.5154C20.7981 27.5982 20.3584 27.5503 19.9616 27.3779C19.56 27.2304 19.2105 26.9681 18.9566 26.6237C18.7027 26.2793 18.5556 25.8679 18.5335 25.4406C18.5216 25.3856 18.5057 25.3316 18.4859 25.2789C18.0951 25.6111 17.7209 25.9166 17.35 26.231L9.64148 32.7627C9.58834 32.8081 9.53078 32.8646 9.48096 32.9089H19.7579L19.7424 32.8989C19.687 32.8602 19.7158 32.6565 19.7634 32.5546Z" fill="#FFCEBF"/>
<path d="M9.0109 32.5547C9.10231 32.4356 9.21264 32.3324 9.33748 32.2491L20.0052 23.1988C20.7329 22.5811 21.4573 21.96 22.1784 21.3356C22.2675 21.2735 22.3373 21.1876 22.3799 21.0876C22.5524 20.336 22.5768 19.558 22.4518 18.7971C22.3411 18.8746 22.2814 18.9078 22.2304 18.9621C21.3569 19.7436 20.4879 20.5319 19.61 21.309C19.3192 21.6017 18.943 21.7947 18.5356 21.8601C18.1282 21.9256 17.7106 21.8602 17.3427 21.6733C16.9674 21.4961 16.6533 21.2113 16.4404 20.855C16.2275 20.4988 16.1254 20.0872 16.1471 19.6728C16.1471 19.5787 16.1471 19.4857 16.1471 19.3141C15.9865 19.4314 15.8692 19.51 15.7596 19.5986C11.49 23.0172 7.22113 26.4333 2.95301 29.8468C2.76038 30.0007 2.5301 30.3438 2.27769 30.0106C2.02528 29.6774 2.40943 29.5401 2.60317 29.3851C7.15323 25.734 11.7055 22.0862 16.26 18.4417C17.0017 17.8472 17.0504 17.5981 16.5678 16.6538L16.2799 16.9239C15.4906 17.6579 14.6924 18.3819 13.9152 19.1281C13.5964 19.4356 13.1972 19.6467 12.7635 19.7369C12.3299 19.8272 11.8796 19.7929 11.4646 19.6382C11.0496 19.4834 10.6868 19.2144 10.4182 18.8622C10.1495 18.5101 9.98596 18.0891 9.94637 17.648C9.79913 17.7587 9.67182 17.8395 9.55115 17.9336L2.79802 23.1678C2.68154 23.282 2.54872 23.3783 2.4039 23.4534C2.2946 23.4865 2.17723 23.4806 2.07178 23.4368V32.9145H8.99761C8.97186 32.8575 8.95966 32.7954 8.96196 32.733C8.96427 32.6706 8.98102 32.6095 9.0109 32.5547V32.5547Z" fill="#FFCEBF"/>
<path d="M27.7205 2.4675C27.5323 3.08409 27.3496 3.70178 27.1847 4.32501C27.0324 4.76543 27.0501 5.24689 27.2344 5.67492C27.4187 6.10295 27.7563 6.44665 28.181 6.6386C29.4799 7.32138 30.9436 7.62808 32.4074 7.52418V2.57267C32.3912 2.46411 32.3972 2.35337 32.4251 2.24722C32.4561 2.18717 32.4952 2.13167 32.5414 2.08228H27.7161C27.7902 2.16862 27.7648 2.32028 27.7205 2.4675Z" fill="#FF6196"/>
<path d="M18.027 13.1053C18.0041 13.6579 17.8107 14.19 17.4735 14.6285C16.268 16.1846 14.8837 17.5935 13.3489 18.8261C13.1014 19.0552 12.7877 19.2 12.4528 19.2398C12.1179 19.2796 11.779 19.2123 11.4848 19.0475C11.1919 18.9224 10.9449 18.7096 10.7778 18.4385C10.6107 18.1673 10.5317 17.8511 10.5516 17.5332C10.587 17.1427 10.7492 16.7746 11.0132 16.4849C12.7294 14.8484 14.5888 13.3691 16.5691 12.0647C16.6988 11.963 16.8572 11.9046 17.0219 11.8979C17.1866 11.8911 17.3492 11.9363 17.4868 12.0271C17.6677 12.1393 17.8139 12.2995 17.9092 12.4898C18.0046 12.6802 18.0453 12.8932 18.027 13.1053Z" fill="#FF87AF"/>
<path d="M16.7013 19.8148C16.6756 19.5701 16.707 19.3228 16.7931 19.0923C16.8791 18.8618 17.0175 18.6544 17.1973 18.4864C18.8776 16.9365 20.6805 15.525 22.5882 14.2655C22.6458 14.229 22.6989 14.1924 22.762 14.1548C22.9287 14.0345 23.1306 13.973 23.336 13.98C23.5414 13.987 23.7386 14.0622 23.8967 14.1935C24.0496 14.3231 24.1578 14.4975 24.2059 14.6921C24.254 14.8866 24.2395 15.0914 24.1646 15.2773C23.9232 16.0812 23.4778 16.8088 22.8716 17.3894C21.6484 18.6071 20.3787 19.7849 19.1079 20.9539C18.9155 21.1518 18.6627 21.28 18.3893 21.3185C18.116 21.357 17.8376 21.3035 17.598 21.1664C17.3462 21.0356 17.1318 20.8429 16.975 20.6065C16.8181 20.37 16.724 20.0976 16.7013 19.8148Z" fill="#FF87AF"/>
<path d="M24.6895 20.547C24.3795 20.8791 24.0607 21.1957 23.7629 21.5355C23.6734 21.6669 23.5991 21.808 23.5415 21.9562C23.7054 22.0049 23.8969 22.1333 24.0297 22.0879C24.7061 21.861 25.3658 21.5887 26.1086 21.302C25.947 21.6739 25.8252 22.0171 25.6536 22.3315C24.9468 23.5194 24.0616 24.5917 23.029 25.5107C22.6364 25.8893 22.2286 26.2513 21.8058 26.5966C21.5818 26.7825 21.3126 26.9055 21.0255 26.9531C20.7384 27.0007 20.4438 26.9712 20.1719 26.8676C19.8999 26.764 19.6604 26.5901 19.4778 26.3635C19.2951 26.137 19.176 25.866 19.1324 25.5782C19.1147 25.4182 19.1288 25.2563 19.174 25.1019C19.2193 24.9474 19.2947 24.8034 19.3959 24.6783C20.9023 23.0424 22.6239 21.6188 24.5134 20.4463C24.5364 20.4374 24.5608 20.4325 24.5854 20.4319L24.6895 20.547Z" fill="#FF87AF"/>
<path d="M27.2297 16.1367L29.1238 7.72363L30.4522 8.03469L29.7669 10.1169C29.1271 12.0541 28.4795 13.9913 27.8552 15.9308C27.7334 16.2894 27.574 16.3559 27.2297 16.1367Z" fill="#FF6196"/>
<path d="M25.0906 21.0861C25.2909 20.3211 25.4902 19.6138 25.6585 18.8987C25.8224 18.2052 26.1343 17.5553 26.5728 16.9936C26.8418 16.6404 27.144 16.781 27.4529 16.8574C27.7385 16.9271 27.8104 17.1364 27.8226 17.4109C27.8676 18.1701 27.6364 18.9199 27.1717 19.5219C26.6184 20.2078 25.9033 20.7453 25.0906 21.0861V21.0861Z" fill="#FF6196"/>
<path d="M32.9854 2.98904C33.002 2.74247 32.9957 2.49491 32.9666 2.24951C32.9438 2.18097 32.8985 2.12209 32.8382 2.08235C32.789 2.04238 32.7315 2.01401 32.6699 1.99931C32.6345 1.99267 32.5847 2.02921 32.5371 2.08124C32.4909 2.13063 32.4518 2.18614 32.4208 2.24619C32.3929 2.35236 32.3868 2.4631 32.4031 2.57167V7.52249C30.9392 7.6264 29.4754 7.31967 28.1763 6.63683C27.7516 6.44487 27.414 6.10114 27.2296 5.67307C27.0453 5.24501 27.0276 4.76351 27.18 4.32306C27.3449 3.69977 27.5276 3.08203 27.7158 2.46539C27.7601 2.31815 27.7855 2.16648 27.7158 2.08013C27.677 2.03809 27.6234 2.0127 27.5663 2.00928C27.4932 2.01007 27.4224 2.03497 27.3648 2.08013C27.282 2.12965 27.2161 2.20294 27.1755 2.29047C26.9541 2.95472 26.7593 3.6256 26.5899 4.30313C26.5259 4.57012 26.5087 4.84617 26.539 5.11904C26.5818 5.61276 26.7654 6.08383 27.068 6.4763C27.3706 6.86877 27.7795 7.16617 28.2461 7.33318C28.4553 7.42064 28.5782 7.50699 28.5195 7.78265C28.4387 8.13249 28.3601 8.48232 28.2804 8.83326C27.7379 11.2112 27.1984 13.5903 26.6618 15.9705C26.6467 16.0767 26.6001 16.1758 26.5279 16.2551C26.1742 16.5362 25.8771 16.8818 25.6522 17.2736C25.3656 17.7906 25.1673 18.3519 25.0655 18.9342C25.0459 19.1199 24.9788 19.2975 24.8706 19.4497C24.7624 19.602 24.6167 19.7237 24.4477 19.8032C23.9861 20.0368 23.562 20.339 23.0495 20.6535C23.0836 20.037 23.077 19.4191 23.0295 18.8035C22.9905 18.6142 22.9988 18.4181 23.0537 18.2328C23.1085 18.0474 23.2082 17.8784 23.344 17.7407C24.0192 17.0718 24.5004 16.2325 24.7366 15.3118C24.8072 15.0984 24.8265 14.8714 24.7931 14.6492C24.7597 14.4269 24.6744 14.2156 24.5443 14.0324C24.4141 13.8492 24.2426 13.6992 24.0437 13.5945C23.8448 13.4898 23.624 13.4334 23.3993 13.4298C23.0354 13.4258 22.6782 13.5273 22.3708 13.7221C21.3114 14.4373 20.2807 15.1967 19.2578 15.965C18.6522 16.4211 18.082 16.9259 17.4953 17.4042C17.47 17.377 17.4481 17.3469 17.43 17.3145C17.4188 17.233 17.3968 17.1534 17.3647 17.0776C16.8742 16.3204 17.2141 15.7702 17.7466 15.2045C18.3014 14.6229 18.6079 13.8482 18.6013 13.0446C18.6185 12.6351 18.4902 12.2327 18.2393 11.9087C18.1056 11.7442 17.9408 11.6077 17.7544 11.5068C17.4895 11.3619 17.1867 11.3014 16.8866 11.3335C16.5864 11.3655 16.3032 11.4886 16.0749 11.6862L15.7661 11.9076C15.0609 12.4124 14.3468 12.904 13.6682 13.4442C12.6773 14.2324 11.7098 15.0539 10.761 15.8953C10.3182 16.2861 9.9949 16.8197 9.53546 17.1828C7.13976 19.0748 4.7186 20.9324 2.30629 22.8023C2.22335 22.8518 2.14708 22.9117 2.07934 22.9805C2.07237 22.9906 2.06644 23.0013 2.06163 23.0126C2.01071 23.1311 1.96753 23.327 2.02731 23.399C2.04197 23.4146 2.05968 23.427 2.07934 23.4355C2.1848 23.4793 2.30217 23.4852 2.41146 23.4521C2.55628 23.377 2.68911 23.2807 2.80558 23.1665L9.55871 17.9323C9.67938 17.8382 9.8067 17.7529 9.95394 17.6466C9.99352 18.0878 10.1571 18.5088 10.4257 18.8609C10.6944 19.2131 11.0571 19.4821 11.4721 19.6369C11.8871 19.7916 12.3375 19.8259 12.7711 19.7356C13.2047 19.6454 13.604 19.4343 13.9228 19.1268C14.6977 18.3806 15.4981 17.6566 16.2875 16.9226L16.5753 16.6525C17.058 17.5968 17.0093 17.8459 16.2676 18.4404C11.7094 22.0878 7.15452 25.736 2.60299 29.3849C2.40925 29.5399 2.0262 29.6805 2.27751 30.0104C2.52881 30.3403 2.76019 30.0004 2.95282 29.8466C7.22316 26.436 11.4906 23.0211 15.755 19.6017C15.8657 19.5132 15.9819 19.4346 16.1425 19.3172C16.1425 19.4888 16.1425 19.5818 16.1425 19.6759C16.1208 20.0904 16.2229 20.5019 16.4358 20.8581C16.6487 21.2144 16.9628 21.4992 17.3381 21.6764C17.706 21.8633 18.1236 21.9287 18.531 21.8633C18.9384 21.7978 19.3146 21.6049 19.6054 21.3122C20.4833 20.5372 21.3523 19.7468 22.2258 18.9652C22.2812 18.9154 22.3454 18.8777 22.4472 18.8002C22.5722 19.5612 22.5477 20.3391 22.3753 21.0907C22.3327 21.1907 22.2629 21.2766 22.1738 21.3387C21.452 21.9624 20.7276 22.5834 20.0006 23.2019L9.3373 32.2533C9.21245 32.3366 9.10212 32.4399 9.01071 32.5589C8.98154 32.6132 8.96518 32.6734 8.96287 32.735C8.96057 32.7966 8.97239 32.8579 8.99743 32.9143V32.9143C9.04745 32.9517 9.10527 32.9775 9.1666 32.9895C9.22793 33.0016 9.29119 32.9997 9.35169 32.984C9.39943 32.9701 9.44336 32.9455 9.48011 32.912C9.53546 32.8678 9.59082 32.8113 9.64064 32.7659L17.3492 26.2342C17.72 25.9198 18.0942 25.6098 18.485 25.2821C18.5048 25.3348 18.5207 25.3888 18.5326 25.4437C18.5547 25.8711 18.7019 26.2825 18.9558 26.6269C19.2097 26.9713 19.5591 27.2336 19.9607 27.3811C20.3575 27.5535 20.7972 27.6014 21.2218 27.5186C21.6464 27.4358 22.0358 27.2261 22.3387 26.9173C22.8524 26.449 23.3595 25.9729 23.8687 25.4991C24.2008 25.1947 24.5219 24.8891 24.8717 24.5603C24.9369 24.7876 24.9897 25.0182 25.03 25.2511C25.0809 25.7933 25.0061 26.34 24.8114 26.8486C24.6167 27.3572 24.3074 27.8141 23.9075 28.1837C22.6244 29.5654 21.3125 30.9171 20.0117 32.2799C19.9264 32.3685 19.8091 32.4415 19.7626 32.5467C19.7161 32.6519 19.6862 32.8578 19.7415 32.9021L19.757 32.912C19.8731 32.9685 20.0037 32.9882 20.1312 32.9685C20.167 32.9612 20.1988 32.9411 20.2209 32.912C20.2519 32.8799 20.2818 32.8401 20.3117 32.8102C21.3656 31.7208 22.4251 30.637 23.4713 29.5399C23.8936 29.1121 24.2906 28.66 24.6603 28.186C25.1423 27.6523 25.462 26.992 25.5816 26.2828C25.7013 25.5737 25.6159 24.8451 25.3356 24.1828C25.3054 24.0351 25.3349 23.8815 25.4175 23.7555C25.4895 23.6315 25.5692 23.5108 25.6511 23.3912C25.9132 23.0509 26.1316 22.679 26.3009 22.2842C26.6283 21.3152 27.1307 20.4147 27.7833 19.6272C28.0833 19.2468 28.2897 18.8013 28.3859 18.3265C28.482 17.8517 28.4652 17.361 28.3368 16.8938C28.2915 16.7162 28.2915 16.5301 28.3368 16.3525C28.897 14.6177 29.4738 12.8885 30.0451 11.1581C30.3012 10.3832 30.5558 9.61042 30.8089 8.8399L31.0447 8.12363C31.5473 8.12363 32.0212 8.11366 32.4928 8.12363C32.8847 8.1347 33.0043 7.95093 32.9998 7.57009C32.9766 6.04234 32.9854 4.51569 32.9854 2.98904ZM13.3493 18.8268C13.1018 19.0559 12.7881 19.2007 12.4532 19.2405C12.1182 19.2803 11.7793 19.213 11.485 19.0482C11.1921 18.9231 10.9451 18.7103 10.778 18.4391C10.6109 18.1679 10.5319 17.8516 10.5518 17.5337C10.5872 17.1433 10.7493 16.7751 11.0134 16.4853C12.7297 14.8488 14.5893 13.3693 16.5698 12.0648C16.6779 11.9884 16.8009 11.9356 16.9307 11.9098C17.0178 11.8937 17.1071 11.8937 17.1942 11.9098C17.2985 11.9301 17.398 11.9699 17.4876 12.0272C17.6686 12.1395 17.8149 12.2999 17.9103 12.4905C18.0057 12.681 18.0463 12.8943 18.0278 13.1066C18.0049 13.6593 17.8115 14.1914 17.4743 14.6299C16.2686 16.1858 14.8841 17.5944 13.3493 18.8268ZM19.1061 20.9623C18.9136 21.1602 18.6608 21.2885 18.3874 21.327C18.1141 21.3655 17.8357 21.312 17.596 21.1749C17.3438 21.0438 17.1291 20.8505 16.9722 20.6135C16.8153 20.3764 16.7214 20.1033 16.6993 19.8198C16.6736 19.5751 16.705 19.3278 16.7911 19.0973C16.8772 18.8668 17.0155 18.6593 17.1953 18.4913C18.8758 16.9413 20.6788 15.5297 22.5867 14.2701C22.6443 14.2335 22.6974 14.197 22.7605 14.1594C22.9272 14.0391 23.1291 13.9776 23.3345 13.9846C23.54 13.9916 23.7372 14.0667 23.8953 14.1981C24.0482 14.3277 24.1564 14.5021 24.2045 14.6967C24.2526 14.8913 24.2382 15.0961 24.1632 15.2819C23.9218 16.0859 23.4763 16.8136 22.8701 17.3942C21.649 18.6142 20.3792 19.7888 19.1083 20.9579L19.1061 20.9623ZM25.65 22.3362C24.944 23.5224 24.0603 24.5932 23.0295 25.5113C22.6369 25.8899 22.2291 26.2519 21.8062 26.5973C21.5823 26.7832 21.313 26.9062 21.0259 26.9538C20.7388 27.0014 20.4442 26.9719 20.1722 26.8683C19.9002 26.7647 19.6607 26.5907 19.478 26.3642C19.2954 26.1376 19.1762 25.8666 19.1327 25.5788C19.1149 25.4188 19.1291 25.2569 19.1743 25.1024C19.2195 24.9479 19.2949 24.8039 19.3961 24.6788C20.9027 23.0428 22.6244 21.619 24.5141 20.4464C24.5371 20.4375 24.5615 20.4326 24.5861 20.432L24.6968 20.5427C24.3868 20.8749 24.068 21.1915 23.7702 21.5314C23.6806 21.6627 23.6063 21.8039 23.5488 21.952C23.7126 22.0008 23.9041 22.1292 24.037 22.0838C24.5717 21.9044 25.0976 21.6963 25.6611 21.4749L26.1161 21.2978C25.9456 21.6742 25.8238 22.0174 25.6522 22.3318L25.65 22.3362ZM27.17 19.5298C26.757 20.0555 26.2395 20.4898 25.65 20.8051C25.4677 20.907 25.2806 21.0022 25.0887 21.0907C25.2858 20.3368 25.4828 19.6383 25.65 18.932L25.6566 18.9032C25.8206 18.2096 26.1326 17.5597 26.5711 16.9979C26.8401 16.6447 27.1423 16.7853 27.4512 16.8617C27.7368 16.9315 27.8088 17.1407 27.8209 17.4153C27.8663 18.1739 27.6359 18.9233 27.1722 19.5253L27.17 19.5298ZM29.7605 10.1197C29.1206 12.057 28.473 13.9944 27.8486 15.934C27.7313 16.2982 27.5719 16.3647 27.2276 16.1455L28.8693 8.84655L29.1218 7.72619L30.4502 8.03728C30.3595 8.31072 30.272 8.57974 30.1834 8.84655L29.7605 10.1197Z" fill="black"/>
</svg>
