<svg width="35" height="35" viewBox="0 0 35 35" fill="none" xmlns="http://www.w3.org/2000/svg">
<mask id="mask0_637_4484" style="mask-type:luminance" maskUnits="userSpaceOnUse" x="0" y="7" width="35" height="22">
<path d="M0 7.19995H35V28.2H0V7.19995Z" fill="white"/>
</mask>
<g mask="url(#mask0_637_4484)">
<path fill-rule="evenodd" clip-rule="evenodd" d="M17.5 7.19995C12.8333 7.19995 9.91667 9.53328 8.75 14.2C10.5 11.8666 12.5417 10.9916 14.875 11.575C16.2063 11.9075 17.1578 12.8738 18.211 13.9426C19.9267 15.6842 21.9126 17.7 26.25 17.7C30.9167 17.7 33.8333 15.3666 35 10.7C33.25 13.0333 31.2083 13.9083 28.875 13.325C27.5437 12.9925 26.5922 12.0261 25.539 10.9573C23.8233 9.21569 21.8374 7.19995 17.5 7.19995ZM8.75 17.7C4.08333 17.7 1.16667 20.0333 0 24.7C1.75 22.3666 3.79167 21.4916 6.125 22.075C7.4563 22.4081 8.40778 23.3738 9.46102 24.4426C11.1767 26.1842 13.1626 28.2 17.5 28.2C22.1667 28.2 25.0833 25.8666 26.25 21.2C24.5 23.5333 22.4583 24.4083 20.125 23.825C18.7937 23.4925 17.8422 22.5261 16.789 21.4573C15.0733 19.7157 13.0874 17.7 8.75 17.7Z" fill="#38BDF8"/>
</g>
</svg>
