<svg width="35" height="35" viewBox="0 0 35 35" fill="none" xmlns="http://www.w3.org/2000/svg">
<path d="M32.8974 6.53669L18.3352 32.3026C18.0345 32.8346 17.2621 32.8377 16.9569 32.3083L2.10589 6.53918C1.77342 5.96228 2.27197 5.26351 2.93265 5.38035L17.5105 7.95865C17.6035 7.97509 17.6987 7.97494 17.7917 7.95817L32.0647 5.38405C32.7231 5.2653 33.224 5.95867 32.8974 6.53669Z" fill="url(#paint0_linear_637_4485)"/>
<path d="M24.4549 1.99828L13.6784 4.08768C13.5012 4.12202 13.3701 4.27055 13.3594 4.44879L12.6965 15.5269C12.6809 15.7879 12.9231 15.9904 13.1805 15.9317L16.1808 15.2465C16.4615 15.1825 16.7152 15.4271 16.6575 15.7064L15.7661 20.0255C15.7061 20.3162 15.9819 20.5648 16.2688 20.4785L18.122 19.9214C18.4093 19.8351 18.6853 20.0844 18.6245 20.3753L17.2079 27.1596C17.1193 27.584 17.6898 27.8154 17.9277 27.4516L18.0866 27.2086L26.8679 9.86835C27.0149 9.57801 26.7614 9.24695 26.4391 9.30849L23.3507 9.89826C23.0605 9.95363 22.8136 9.6862 22.8955 9.40524L24.9112 2.49105C24.9932 2.20962 24.7454 1.94196 24.4549 1.99828Z" fill="url(#paint1_linear_637_4485)"/>
<defs>
<linearGradient id="paint0_linear_637_4485" x1="1.74329" y1="4.45952" x2="19.6194" y2="28.9948" gradientUnits="userSpaceOnUse">
<stop stop-color="#41D1FF"/>
<stop offset="1" stop-color="#BD34FE"/>
</linearGradient>
<linearGradient id="paint1_linear_637_4485" x1="16.674" y1="2.56555" x2="19.8853" y2="24.8289" gradientUnits="userSpaceOnUse">
<stop stop-color="#FFEA83"/>
<stop offset="0.0833333" stop-color="#FFDD35"/>
<stop offset="1" stop-color="#FFA800"/>
</linearGradient>
</defs>
</svg>
