<svg width="35" height="35" viewBox="0 0 35 35" fill="none" xmlns="http://www.w3.org/2000/svg">
<g clip-path="url(#clip0_637_4471)">
<path d="M17.5721 36.5029L34.1442 27.1288V8.37417L17.5721 -1L1 8.37417V27.1288L17.5721 36.5029Z" fill="white"/>
<path d="M31.1862 9.02475L18.1224 1.62672V7.38005L26.2646 11.8639L31.1862 9.02475ZM32.0805 9.83146V25.2904L27.3027 22.5326V12.5893L32.0805 9.83146ZM3.90794 9.02475L16.9717 1.63298V7.3863L8.82953 11.8639L3.90794 9.02475ZM3.01367 9.83146V25.2904L7.79143 22.5326V12.5893L3.01367 9.83146ZM3.57024 26.291L16.9717 33.8704V28.3046L8.38553 23.5832L8.31674 23.5456L3.57024 26.291ZM31.5177 26.291L18.1224 33.8704V28.3046L26.7024 23.5769L26.7712 23.5394L31.5177 26.291Z" fill="#8ED6FB"/>
<path d="M16.9718 8.69305L8.94214 13.1144V21.8632L16.9718 17.2292V8.69305ZM18.1224 8.69305L26.1521 13.1081V21.8632L18.1224 17.2292V8.69305ZM9.47995 22.8762L17.5471 27.3101L25.608 22.8762L17.5471 18.2236L9.47995 22.8762Z" fill="#1C78C0"/>
</g>
<defs>
<clipPath id="clip0_637_4471">
<rect width="35" height="35" fill="white"/>
</clipPath>
</defs>
</svg>
